<svg width="50" height="15" viewBox="0 0 50 15" fill="none" xmlns="http://www.w3.org/2000/svg">
    <g opacity="0.4">
        <path d="M0.118608 11H6.26847V9.67756H1.65483V0.818182H0.118608V11ZM11.1183 11.1541C13.271 11.1541 14.6779 9.57812 14.6779 7.21662C14.6779 4.8402 13.271 3.2642 11.1183 3.2642C8.96555 3.2642 7.55859 4.8402 7.55859 7.21662C7.55859 9.57812 8.96555 11.1541 11.1183 11.1541ZM11.1232 9.90625C9.71626 9.90625 9.06001 8.67827 9.06001 7.21165C9.06001 5.75 9.71626 4.5071 11.1232 4.5071C12.5202 4.5071 13.1765 5.75 13.1765 7.21165C13.1765 8.67827 12.5202 9.90625 11.1232 9.90625ZM19.5389 14.0227C21.4828 14.0227 22.9842 13.1328 22.9842 11.169V3.36364H21.5275V4.60156H21.4181C21.1547 4.12926 20.6277 3.2642 19.2058 3.2642C17.3613 3.2642 16.0041 4.72088 16.0041 7.15199C16.0041 9.58807 17.3912 10.8857 19.1958 10.8857C20.5978 10.8857 21.1397 10.0952 21.4082 9.60795H21.5027V11.1094C21.5027 12.3075 20.6824 12.8246 19.5538 12.8246C18.3159 12.8246 17.8336 12.2031 17.5701 11.7656L16.2924 12.2926C16.6951 13.2273 17.7143 14.0227 19.5389 14.0227ZM19.524 9.6527C18.1966 9.6527 17.5055 8.63352 17.5055 7.1321C17.5055 5.66548 18.1816 4.52699 19.524 4.52699C20.8216 4.52699 21.5176 5.58594 21.5176 7.1321C21.5176 8.7081 20.8066 9.6527 19.524 9.6527ZM31.8995 11.1541C34.0522 11.1541 35.4592 9.57812 35.4592 7.21662C35.4592 4.8402 34.0522 3.2642 31.8995 3.2642C29.7468 3.2642 28.3398 4.8402 28.3398 7.21662C28.3398 9.57812 29.7468 11.1541 31.8995 11.1541ZM31.9045 9.90625C30.4975 9.90625 29.8413 8.67827 29.8413 7.21165C29.8413 5.75 30.4975 4.5071 31.9045 4.5071C33.3015 4.5071 33.9577 5.75 33.9577 7.21165C33.9577 8.67827 33.3015 9.90625 31.9045 9.90625ZM41.9558 7.8331C41.9608 9.13068 40.9963 9.74716 40.161 9.74716C39.2413 9.74716 38.6049 9.08097 38.6049 8.0419V3.36364H37.1184V8.22088C37.1184 10.1151 38.1575 11.0994 39.6241 11.0994C40.7725 11.0994 41.5531 10.4929 41.9061 9.67756H41.9856V11H43.4473V3.36364H41.9558V7.8331ZM49.0092 3.36364H47.4432V1.53409H45.9567V3.36364H44.8381V4.55682H45.9567V9.06605C45.9517 10.4531 47.0107 11.1243 48.1839 11.0994C48.6562 11.0945 48.9744 11.005 49.1484 10.9403L48.88 9.71236C48.7805 9.73224 48.5966 9.77699 48.358 9.77699C47.8757 9.77699 47.4432 9.6179 47.4432 8.75781V4.55682H49.0092V3.36364Z"
              fill="#2B3844"/>
    </g>
</svg>
